<svg xmlns="http://www.w3.org/2000/svg" viewBox="0 0 24.8 23.4" style="enable-background:new 0 0 24.8 23.4"
	xml:space="preserve">
	<path
		style="fill-rule:evenodd;clip-rule:evenodd;fill:none;stroke:current;stroke-width:1.5;stroke-miterlimit:10"
		d="M13.8 1.2c-.8-.7-2-.7-2.9 0L1.2 8.8c-.9.7-.4 2.1.7 2.1h1.3l1 9.6c.1 1.2 1.1 2.1 2.3 2.1h11.9c1.2 0 2.2-.9 2.3-2.1l1-9.6H23c1.1 0 1.6-1.4.7-2.1l-9.9-7.6zm-1.4 8c-2.3 0-4.1 1.8-4.1 4.1s1.8 4.1 4.1 4.1 4.1-1.8 4.1-4.1-1.8-4.1-4.1-4.1z"
	/>
</svg>