<?xml version="1.0" encoding="utf-8"?>
<!-- Generator: Adobe Illustrator 24.3.0, SVG Export Plug-In . SVG Version: 6.00 Build 0)  -->
<svg version="1.1" id="Layer_1" xmlns="http://www.w3.org/2000/svg" xmlns:xlink="http://www.w3.org/1999/xlink" x="0px" y="0px"
	 viewBox="0 0 18 18.1" style="enable-background:new 0 0 18 18.1;" xml:space="preserve">
<style type="text/css">
	.st0{fill:#1D9BF0;}
	.st1{fill:none;stroke:#FFFFFF;stroke-width:1.5;stroke-linecap:round;stroke-linejoin:round;}
</style>
<path class="st0" d="M2,4.2C2,3,3,2,4.2,2h1c0.6,0,1.1-0.2,1.6-0.6l0.7-0.7c0.9-0.9,2.2-0.9,3.1,0l0,0l0.7,0.7
	c0.4,0.4,1,0.6,1.6,0.6h1C15,2,16,3,16,4.2l0,0v1c0,0.6,0.2,1.1,0.6,1.6l0.7,0.7c0.9,0.9,0.9,2.2,0,3.1l0,0l-0.7,0.7
	c-0.4,0.4-0.6,1-0.6,1.6v1c0,1.2-1,2.2-2.2,2.2l0,0h-1c-0.6,0-1.1,0.2-1.6,0.6l-0.7,0.7c-0.9,0.9-2.2,0.9-3.1,0l0,0l-0.7-0.7
	c-0.4-0.4-1-0.6-1.6-0.6h-1C3,16,2,15,2,13.8l0,0v-1c0-0.6-0.2-1.1-0.6-1.6l-0.7-0.7c-0.9-0.9-0.9-2.2,0-3.1l0,0l0.7-0.7
	C1.8,6.3,2,5.8,2,5.2V4.2"/>
<path class="st1" d="M6,9l2,2l4-4"/>
</svg>
